<svg xmlns="http://www.w3.org/2000/svg" viewBox="0 0 1840 1065.506"><defs><style>.a{fill:#dddcdc;}.b{fill:none;stroke:#707070;}</style></defs><g transform="translate(-41 -15)"><rect class="a" width="20" height="61" transform="translate(41 941)"/><line class="b" x1="1" y2="79" transform="translate(50.5 1001.5)"/><rect class="a" width="20" height="24" transform="translate(111 929)"/><line class="b" x1="1" y2="127" transform="translate(120.5 953.5)"/><rect class="a" width="20" height="36" transform="matrix(0.999, 0.035, -0.035, 0.999, 181.774, 897.664)"/><line class="b" x1="1" y2="146" transform="translate(190.5 934.5)"/><rect class="a" width="20" height="38" transform="translate(251 934)"/><line class="b" x1="1" y2="109" transform="translate(260.5 971.5)"/><rect class="a" width="20" height="33" transform="translate(321 883)"/><line class="b" x1="1" y2="164" transform="translate(330.5 916.5)"/><rect class="a" width="20" height="35.015" transform="translate(391 912.078)"/><line class="b" x1="1" y2="133.057" transform="translate(400.5 947.443)"/><rect class="a" width="20" height="26.211" transform="translate(461 879.185)"/><line class="b" x1="1" y2="174.74" transform="translate(470.5 905.76)"/><rect class="a" width="20" height="36.554" transform="translate(531 818.391)"/><line class="b" x1="1" y2="225.14" transform="translate(540.5 855.36)"/><rect class="a" width="20" height="90.642" transform="translate(601 741.449)"/><line class="b" x1="1" y2="247.982" transform="translate(610.5 832.518)"/><rect class="a" width="20" height="22.987" transform="translate(671 718.46)"/><line class="b" x1="1" y2="338.611" transform="translate(680.5 741.889)"/><rect class="a" width="20" height="28" transform="translate(742 683)"/><line class="b" x1="1" y2="369.555" transform="translate(750.5 710.945)"/><rect class="a" width="20" height="22.987" transform="translate(811 718.46)"/><line class="b" x1="1" y2="338.611" transform="translate(820.5 741.889)"/><rect class="a" width="20" height="49.51" transform="translate(881 763.549)"/><line class="b" x1="1" y2="266.999" transform="translate(890.5 813.501)"/><rect class="a" width="20" height="37.132" transform="translate(951 741.447)"/><line class="b" x1="1" y2="301.479" transform="translate(960.5 779.021)"/><rect class="a" width="20" height="68.96" transform="translate(1021 649.5)"/><line class="b" x1="1" y2="361.598" transform="translate(1030.5 718.902)"/><rect class="a" width="20" height="153" transform="translate(1091 577)"/><line class="b" x1="1" y2="351" transform="translate(1100.5 729.5)"/><rect class="a" width="20" height="24.33" transform="translate(1161 807.705)"/><line class="b" x1="1" y2="248.77" transform="translate(1170.5 831.73)"/><rect class="a" width="20" height="33.822" transform="translate(1231 802.231)"/><line class="b" x1="1" y2="244.512" transform="translate(1240.5 835.988)"/><rect class="a" width="20" height="37.711" transform="translate(1301 758.438)"/><line class="b" x1="1" y2="284.047" transform="translate(1310.5 796.453)"/><rect class="a" width="20" height="64.195" transform="translate(1371 683.902)"/><line class="b" x1="1" y2="332" transform="translate(1380.5 748.5)"/><rect class="a" width="20" height="57" transform="translate(1441 525)"/><line class="b" x1="1" y2="498" transform="translate(1450.5 582.5)"/><rect class="a" width="20" height="147" transform="translate(1511 330)"/><line class="b" x1="1" y2="603" transform="translate(1520.5 477.5)"/><rect class="a" width="20" height="103" transform="translate(1581 227)"/><line class="b" x1="1" y2="750" transform="translate(1590.5 330.5)"/><rect class="a" width="20" height="42" transform="translate(1651 176)"/><line class="b" x1="1" y2="862" transform="translate(1660.5 218.5)"/><rect class="a" width="20" height="108" transform="translate(1721 96)"/><line class="b" x1="1" y2="876" transform="translate(1730.5 204.5)"/><rect class="a" width="20" height="47" transform="translate(1791 115)"/><line class="b" x1="1" y2="918" transform="translate(1800.5 162.5)"/><rect class="a" width="20" height="100" transform="translate(1861 15)"/><line class="b" x1="1" y2="965" transform="translate(1870.5 115.5)"/></g></svg>