<svg xmlns="http://www.w3.org/2000/svg" viewBox="0 0 224.063 114.514"><defs><style>.a,.d{fill:#fff;}.a,.c{stroke:#434343;}.a{stroke-width:2px;}.b{fill:#616161;font-size:18px;font-family:SegoeUI, Segoe UI;letter-spacing:0.01em;}.c{fill:#1c75bc;stroke-width:3px;}.d{fill-rule:evenodd;}</style></defs><g transform="translate(-1462.752 -355.573)"><path class="a" d="M8.981,50.578A26.127,26.127,0,0,0,14.44,35.959H2.5a2.5,2.5,0,0,1-2.5-2.5V2.5A2.5,2.5,0,0,1,2.5,0H162.912a2.5,2.5,0,0,1,2.5,2.5V33.459a2.5,2.5,0,0,1-2.5,2.5H29.718c-.3.507-.873,1.479-2.8,4.941C20.9,51.675,13.581,55.807,9.849,55.806,7.232,55.806,6.38,53.775,8.981,50.578Z" transform="translate(1520.403 356.573)"/><text class="b" transform="translate(1546.134 379.674)"><tspan x="0" y="0">I wanna buy !</tspan><tspan x="0" y="24"></tspan></text><g transform="translate(1464.252 411.128)"><ellipse class="c" cx="28.73" cy="28.73" rx="28.73" ry="28.73"/><path class="d" d="M43.439,15.5,39.779,26.96s-2.257,5.712-7.627,5.712H6.261L8.108,26.96H31.571L35.264,15.5H11.836L13.648,9.79H39.4C45.046,9.79,43.439,15.5,43.439,15.5ZM7.184,18.58H21.07l-1.779,5.3H5.371Z" transform="translate(4.274 7.79)"/></g></g></svg>