<svg xmlns="http://www.w3.org/2000/svg" viewBox="0 0 220.245 114.381"><defs><style>.a{fill:#627eea;stroke-width:3px;}.a,.f{stroke:#434343;}.b{fill:#c5c6dd;}.c,.f{fill:#fff;}.d{fill:#939dc3;}.e{fill:#ccd1d9;}.f{stroke-width:2px;}.g{fill:#616161;font-size:18px;font-family:SegoeUI, Segoe UI;letter-spacing:0.01em;}</style></defs><g transform="translate(-1176.569 -166.887)"><g transform="translate(1178.069 231.633)"><path class="a" d="M24.067,0A24.067,24.067,0,1,1,0,24.067,24.067,24.067,0,0,1,24.067,0Z"/><g transform="translate(13.538 6.017)"><path class="b" d="M7.5,0V13.342l11.277,5.039Z" transform="translate(3.781)"/><path class="c" d="M11.279,0,0,18.382l11.279-5.039Z"/><path class="b" d="M7.5,20.162v9.066L18.783,13.616Z" transform="translate(3.781 6.865)"/><path class="c" d="M11.279,29.228V20.161L0,13.616Z" transform="translate(0 6.865)"/><path class="d" d="M7.5,20.456l11.277-6.548L7.5,8.872Z" transform="translate(3.781 4.473)"/><path class="e" d="M0,13.908l11.279,6.548V8.872Z" transform="translate(0 4.473)"/></g></g><path class="f" d="M9.253,52.107a26.918,26.918,0,0,0,5.624-15.062H2.5a2.5,2.5,0,0,1-2.5-2.5V2.5A2.5,2.5,0,0,1,2.5,0H167.911a2.5,2.5,0,0,1,2.5,2.5V34.546a2.5,2.5,0,0,1-2.5,2.5H30.616c-.305.522-.9,1.523-2.889,5.09-6.192,11.1-13.736,15.357-17.581,15.356C7.451,57.492,6.573,55.4,9.253,52.107Z" transform="translate(1225.403 167.887)"/><text class="g" transform="translate(1251.911 191.111)"><tspan x="0" y="0">should i sell ?</tspan></text></g></svg>