<svg xmlns="http://www.w3.org/2000/svg" viewBox="0 0 212.322 144.303"><defs><style>.a,.d{fill:#fff;}.a,.c{stroke:#434343;}.a{stroke-width:2px;}.b{fill:#616161;font-size:16px;font-family:SegoeUI, Segoe UI;letter-spacing:0.01em;}.c{fill:#12bfae;stroke-width:3px;}</style></defs><g transform="translate(-936 -363.502)"><path class="a" d="M8.6,76.928c4-7.812,5.009-16.952,5.231-22.235H2.5a2.5,2.5,0,0,1-2.5-2.5V2.5A2.5,2.5,0,0,1,2.5,0H155.97a2.5,2.5,0,0,1,2.5,2.5V52.192a2.5,2.5,0,0,1-2.5,2.5H28.47c-.284.772-.836,2.251-2.686,7.515C20.026,78.594,13.011,84.878,9.436,84.877,6.929,84.877,6.112,81.788,8.6,76.928Z" transform="translate(988.403 364.502)"/><text class="b" transform="translate(1007.322 370.185)"><tspan x="0" y="17">We need to stop </tspan><tspan x="0" y="38">the FUD!</tspan></text><g transform="translate(937.5 449.281)"><ellipse class="c" cx="28.512" cy="28.512" rx="28.512" ry="28.512"/><g transform="translate(9.89 10.826)"><ellipse class="d" cx="2.103" cy="2.103" rx="2.103" ry="2.103" transform="translate(24.383)"/><ellipse class="d" cx="1.78" cy="1.78" rx="1.78" ry="1.78" transform="translate(25.28 5.839)"/><ellipse class="d" cx="1.776" cy="1.776" rx="1.776" ry="1.776" transform="translate(29.953 6.51)"/><ellipse class="d" cx="1.519" cy="1.519" rx="1.519" ry="1.519" transform="translate(29.637 11.472)"/><ellipse class="d" cx="1.529" cy="1.529" rx="1.529" ry="1.529" transform="translate(33.363 12.9)"/><ellipse class="d" cx="1.556" cy="1.556" rx="1.556" ry="1.556" transform="translate(24.904 10.793)"/><ellipse class="d" cx="1.305" cy="1.305" rx="1.305" ry="1.305" transform="translate(23.797 14.831)"/><ellipse class="d" cx="1.296" cy="1.296" rx="1.296" ry="1.296" transform="translate(28.48 15.48)"/><ellipse class="d" cx="1.307" cy="1.307" rx="1.307" ry="1.307" transform="translate(32.198 16.898)"/><ellipse class="d" cx="1.103" cy="1.103" rx="1.103" ry="1.103" transform="translate(30.552 19.986)"/><ellipse class="d" cx="1.127" cy="1.127" rx="1.127" ry="1.127" transform="translate(26.784 18.52)"/><ellipse class="d" cx="1.116" cy="1.116" rx="1.116" ry="1.116" transform="translate(22.124 17.882)"/><ellipse class="d" cx="0.973" cy="0.973" rx="0.973" ry="0.973" transform="translate(24.857 20.691)"/><ellipse class="d" cx="0.981" cy="0.981" rx="0.981" ry="0.981" transform="translate(28.593 22.12)"/><ellipse class="d" cx="0.774" cy="0.774" rx="0.774" ry="0.774" transform="translate(26.684 23.599)"/><ellipse class="d" cx="0.703" cy="0.703" rx="0.703" ry="0.703" transform="translate(24.753 24.317)"/><ellipse class="d" cx="0.835" cy="0.835" rx="0.835" ry="0.835" transform="translate(22.879 22.137)"/><ellipse class="d" cx="0.971" cy="0.971" rx="0.971" ry="0.971" transform="translate(20.183 20.054)"/><ellipse class="d" cx="2.092" cy="2.092" rx="2.092" ry="2.092" transform="translate(26.724 29.518)"/><ellipse class="d" cx="1.745" cy="1.745" rx="1.745" ry="1.745" transform="translate(21.98 27.649)"/><ellipse class="d" cx="1.76" cy="1.76" rx="1.76" ry="1.76" transform="translate(19.068 31.281)"/><ellipse class="d" cx="1.524" cy="1.524" rx="1.524" ry="1.524" transform="translate(18.422 24.981)"/><ellipse class="d" cx="1.521" cy="1.521" rx="1.521" ry="1.521" transform="translate(15.529 28.702)"/><ellipse class="d" cx="1.515" cy="1.515" rx="1.515" ry="1.515" transform="translate(12.421 31.235)"/><ellipse class="d" cx="1.292" cy="1.292" rx="1.292" ry="1.292" transform="translate(10.039 28.379)"/><ellipse class="d" cx="1.294" cy="1.294" rx="1.294" ry="1.294" transform="translate(13.159 25.844)"/><ellipse class="d" cx="1.296" cy="1.296" rx="1.296" ry="1.296" transform="translate(16.07 22.128)"/><ellipse class="d" cx="1.121" cy="1.121" rx="1.121" ry="1.121" transform="translate(11.781 22.972)"/><ellipse class="d" cx="1.112" cy="1.112" rx="1.112" ry="1.112" transform="translate(8.684 25.512)"/><ellipse class="d" cx="0.962" cy="0.962" rx="0.962" ry="0.962" transform="translate(8.114 22.845)"/><ellipse class="d" cx="0.825" cy="0.825" rx="0.825" ry="0.825" transform="translate(8.216 20.512)"/><ellipse class="d" cx="0.703" cy="0.703" rx="0.703" ry="0.703" transform="translate(8.765 18.589)"/><ellipse class="d" cx="0.835" cy="0.835" rx="0.835" ry="0.835" transform="translate(11.321 17.977)"/><ellipse class="d" cx="0.973" cy="0.973" rx="0.973" ry="0.973" transform="translate(14.125 16.585)"/><ellipse class="d" cx="1.107" cy="1.107" rx="1.107" ry="1.107" transform="translate(14.696 19.265)"/><ellipse class="d" cx="0.964" cy="0.964" rx="0.964" ry="0.964" transform="translate(11.23 20.322)"/><ellipse class="d" cx="2.086" cy="2.086" rx="2.086" ry="2.086" transform="translate(0 16.814)"/><ellipse class="d" cx="1.786" cy="1.786" rx="1.786" ry="1.786" transform="translate(4.808 13.833)"/><ellipse class="d" cx="1.777" cy="1.777" rx="1.777" ry="1.777" transform="translate(3.05 9.467)"/><ellipse class="d" cx="1.523" cy="1.523" rx="1.523" ry="1.523" transform="translate(7.651 7.877)"/><ellipse class="d" cx="1.528" cy="1.528" rx="1.528" ry="1.528" transform="translate(9.426 12.236)"/><ellipse class="d" cx="1.302" cy="1.302" rx="1.302" ry="1.302" transform="translate(13.609 11.763)"/><ellipse class="d" cx="1.121" cy="1.121" rx="1.121" ry="1.121" transform="translate(17.211 12.122)"/><ellipse class="d" cx="0.944" cy="0.944" rx="0.944" ry="0.944" transform="translate(20.21 13.098)"/><ellipse class="d" cx="0.823" cy="0.823" rx="0.823" ry="0.823" transform="translate(20.693 10.039)"/><ellipse class="d" cx="0.954" cy="0.954" rx="0.954" ry="0.954" transform="translate(18.391 8.715)"/><ellipse class="d" cx="1.115" cy="1.115" rx="1.115" ry="1.115" transform="translate(15.441 7.757)"/><ellipse class="d" cx="1.303" cy="1.303" rx="1.303" ry="1.303" transform="translate(11.843 7.401)"/><ellipse class="d" cx="1.477" cy="1.477" rx="1.477" ry="1.477" transform="translate(7.069 3.956)"/><ellipse class="d" cx="1.303" cy="1.303" rx="1.303" ry="1.303" transform="translate(11.195 3.43)"/><ellipse class="d" cx="1.124" cy="1.124" rx="1.124" ry="1.124" transform="translate(14.795 3.789)"/><ellipse class="d" cx="0.946" cy="0.946" rx="0.946" ry="0.946" transform="translate(17.775 4.768)"/><ellipse class="d" cx="0.846" cy="0.846" rx="0.846" ry="0.846" transform="translate(20.03 6.065)"/><ellipse class="d" cx="0.696" cy="0.696" rx="0.696" ry="0.696" transform="translate(21.754 7.62)"/></g></g></g></svg>