<svg xmlns="http://www.w3.org/2000/svg" viewBox="0 0 526.241 334.394"><defs><style>.a{fill:#fff;}.a,.b{stroke:#434343;}.a,.d{stroke-width:8px;}.b,.c{fill:#434343;}.b{stroke-width:3px;}.d,.e{fill:#e4e4e4;}.d{stroke:#e4e4e4;opacity:0.8;}.f{fill:#6acaad;}.f,.g{opacity:0.9;}.g{fill:#e78296;}.h{stroke:none;}.i{fill:none;}</style></defs><g transform="translate(-973 -246.606)"><g class="a" transform="translate(973 246.606)"><rect class="h" width="526.241" height="287.236" rx="12"/><rect class="i" x="4" y="4" width="518.241" height="279.236" rx="8"/></g><g class="b" transform="translate(1146.627 533.842)"><rect class="h" width="177.915" height="39.656"/><rect class="i" x="1.5" y="1.5" width="174.915" height="36.656"/></g><g class="b" transform="translate(1123.048 571.354)"><rect class="h" width="222.929" height="9.646"/><rect class="i" x="1.5" y="1.5" width="219.929" height="6.646"/></g><rect class="c" width="41.799" height="272.231" transform="translate(978.359 254.109)"/><g class="d" transform="translate(1237.728 255.181)"><rect class="h" width="252.939" height="270.087"/><rect class="i" x="4" y="4" width="244.939" height="262.087"/></g><rect class="e" width="186.489" height="20.364" rx="7" transform="translate(1026.589 494.186)"/><rect class="e" width="93.244" height="6.431" rx="3.215" transform="translate(1026.589 262.683)"/><rect class="e" width="183.273" height="6.431" rx="3.215" transform="translate(1026.589 288.406)"/><rect class="e" width="35.369" height="6.431" rx="3.215" transform="translate(1026.589 314.128)"/><path class="f" d="M3.215,0H32.153a3.215,3.215,0,0,1,0,6.431H3.215A3.215,3.215,0,0,1,3.215,0Z" transform="translate(1261.843 346.817) rotate(90)"/><path class="f" d="M1.413,0H14.128c.78,0,1.413,1.44,1.413,3.215s-.633,3.215-1.413,3.215H1.413C.633,6.431,0,4.991,0,3.215S.633,0,1.413,0Z" transform="translate(1278.992 335.028) rotate(90)"/><path class="f" d="M1.169,0H11.692c.646,0,1.169,1.44,1.169,3.215s-.523,3.215-1.169,3.215H1.169C.523,6.431,0,4.991,0,3.215S.523,0,1.169,0Z" transform="translate(1296.14 322.166) rotate(90)"/><path class="g" d="M1.705,0H17.051c.942,0,1.705,1.44,1.705,3.215s-.763,3.215-1.705,3.215H1.705C.763,6.431,0,4.991,0,3.215S.763,0,1.705,0Z" transform="translate(1313.288 331.812) rotate(90)"/><path class="g" d="M1.134,0H11.34c.626,0,1.134,1.44,1.134,3.215s-.508,3.215-1.134,3.215H1.134C.508,6.431,0,4.991,0,3.215S.508,0,1.134,0Z" transform="translate(1330.437 344.674) rotate(90)"/><path class="f" d="M1.559,0H15.589c.861,0,1.559,1.44,1.559,3.215s-.7,3.215-1.559,3.215H1.559C.7,6.431,0,4.991,0,3.215S.7,0,1.559,0Z" transform="translate(1347.585 329.669) rotate(90)"/><path class="f" d="M1.559,0H15.589c.861,0,1.559,1.44,1.559,3.215s-.7,3.215-1.559,3.215H1.559C.7,6.431,0,4.991,0,3.215S.7,0,1.559,0Z" transform="translate(1364.734 317.879) rotate(90)"/><path class="f" d="M1.922,0h17.3c1.062,0,1.922,1.44,1.922,3.215s-.861,3.215-1.922,3.215H1.922C.861,6.431,0,4.991,0,3.215S.861,0,1.922,0Z" transform="translate(1381.882 302.875) rotate(90)"/><path class="f" d="M1.169,0H11.69c.646,0,1.169,1.44,1.169,3.215s-.523,3.215-1.169,3.215H1.169C.523,6.431,0,4.991,0,3.215S.523,0,1.169,0Z" transform="translate(1399.03 293.229) rotate(90)"/><path class="f" d="M1.267,0h11.4c.7,0,1.267,1.44,1.267,3.215s-.567,3.215-1.267,3.215H1.267C.567,6.431,0,4.991,0,3.215S.567,0,1.267,0Z" transform="translate(1416.179 303.946) rotate(90)"/><path class="f" d="M3.215,0H32.153a3.215,3.215,0,0,1,0,6.431H3.215A3.215,3.215,0,0,1,3.215,0Z" transform="translate(1433.327 297.516) rotate(90)"/><path class="g" d="M1.559,0H15.589c.861,0,1.559,1.44,1.559,3.215s-.7,3.215-1.559,3.215H1.559C.7,6.431,0,4.991,0,3.215S.7,0,1.559,0Z" transform="translate(1450.475 314.664) rotate(90)"/><path class="f" d="M1.959,0H19.591c1.082,0,1.959,1.44,1.959,3.215s-.877,3.215-1.959,3.215H1.959C.877,6.431,0,4.991,0,3.215S.877,0,1.959,0Z" transform="translate(1467.624 306.09) rotate(90)"/><rect class="e" width="100.747" height="6.431" rx="3.215" transform="translate(1026.589 339.851)"/><rect class="e" width="19.292" height="6.431" rx="3.215" transform="translate(1026.589 365.573)"/><rect class="e" width="54.66" height="6.431" rx="3.215" transform="translate(1026.589 391.296)"/><rect class="e" width="102.89" height="6.431" rx="3.215" transform="translate(1026.589 417.019)"/><rect class="e" width="137.187" height="6.431" rx="3.215" transform="translate(1026.589 442.741)"/><rect class="e" width="96.46" height="6.431" rx="3.215" transform="translate(1026.589 468.464)"/><rect class="e" width="19.292" height="19.292" rx="9" transform="translate(1216.293 494.186)"/></g></svg>